<?xml version="1.0" encoding="UTF-8" standalone="no"?><!DOCTYPE svg PUBLIC "-//W3C//DTD SVG 1.1//EN" "http://www.w3.org/Graphics/SVG/1.1/DTD/svg11.dtd"><svg width="100%" height="100%" viewBox="0 0 5000 1250" version="1.1" xmlns="http://www.w3.org/2000/svg" xmlns:xlink="http://www.w3.org/1999/xlink" xml:space="preserve" xmlns:serif="http://www.serif.com/" style="fill-rule:evenodd;clip-rule:evenodd;stroke-linecap:round;stroke-linejoin:round;stroke-miterlimit:1.5;"><path d="M4995.3,-62.452l-4988.75,-6.634l-1.837,1381.54l4988.75,6.634l1.837,-1381.54Z" style="fill:#92abc8;"/><g><path d="M2500.24,189.933c240.12,0.134 434.959,195.189 434.825,435.309c-0.134,240.12 -195.189,434.959 -435.309,434.825c-240.12,-0.134 -434.959,-195.189 -434.825,-435.309c0.134,-240.12 195.189,-434.959 435.309,-434.825Z" style="fill:none;stroke:#a1bf95;stroke-width:138.69px;"/><path d="M2500.24,189.933c240.12,0.134 434.959,195.189 434.825,435.309c-0.134,240.12 -195.189,434.959 -435.309,434.825c-240.12,-0.134 -434.959,-195.189 -434.825,-435.309c0.134,-240.12 195.189,-434.959 435.309,-434.825Z" style="fill:#e0dfa1;"/><path id="HOOFD" d="M2262.12,568.774l57.325,-93.11l-0.3,0.071l0.101,-181.776l123.124,139.155l118.76,-0.266l122.432,-138.064l-0.101,181.777l-0.471,-0.113l58.447,95.171l147.837,0.878l-48.774,52.264l64.471,33.237l-26.993,13.589l26.731,9.544l-146.278,50.641l-33.569,16.9l-137.309,147.133l-37.851,-41.536l-44.098,65.143l-46.619,-66.177l-38.801,41.576l-123.361,-135.373l-55.37,-27.953l-146.222,-50.804l26.741,-9.514l-26.977,-13.619l74.211,-38.155l-46.884,-51.449l139.798,0.83Zm242.373,181.023l-79.945,-124.65l159.734,-0.1l-79.789,124.75Zm-109.645,-284.546l79.798,124.745l-159.734,-0.089l79.936,-124.656Zm215.026,0.12l79.798,124.744l-159.734,-0.089l79.936,-124.655Z" style="fill:#ec5853;stroke:#a2bf94;stroke-width:9.25px;"/></g></svg>